<?xml version="1.0" standalone="no"?>
<!DOCTYPE svg PUBLIC "-//W3C//DTD SVG 20010904//EN"
 "http://www.w3.org/TR/2001/REC-SVG-20010904/DTD/svg10.dtd">
<svg version="1.0" xmlns="http://www.w3.org/2000/svg"
 width="328.000000pt" height="226.000000pt" viewBox="0 0 328.000000 226.000000"
 preserveAspectRatio="xMidYMid meet">

<g transform="translate(0.000000,226.000000) scale(0.100000,-0.100000)"
fill="#000000" stroke="none">
<path d="M671 2239 c-19 -11 -91 -36 -160 -54 -149 -39 -211 -62 -301 -115
-98 -57 -142 -104 -178 -193 l-32 -76 0 -698 0 -698 36 -105 c20 -58 45 -117
56 -132 36 -52 126 -84 423 -147 99 -21 115 -21 1218 -21 1075 0 1119 1 1155
19 20 10 74 30 120 45 153 48 196 82 242 192 l30 73 0 660 0 660 -31 83 c-78
212 -148 316 -246 366 -49 26 -231 82 -408 127 l-140 35 -875 0 c-870 0 -875
0 -909 -21z m1580 -546 c1 -364 3 -412 14 -376 68 214 243 331 451 302 123
-17 216 -81 273 -188 56 -106 61 -159 61 -682 0 -458 0 -469 -19 -469 -19 0
-20 13 -23 492 -3 467 -5 496 -24 554 -54 158 -167 244 -322 244 -171 0 -291
-90 -361 -270 -44 -114 -51 -203 -51 -632 0 -381 0 -388 -20 -388 -20 0 -20 7
-20 915 0 908 0 915 20 915 20 0 20 -7 21 -417z m-531 -90 c70 -19 150 -72
185 -123 32 -47 62 -147 66 -222 3 -47 1 -53 -18 -56 -18 -3 -21 3 -25 61 -10
126 -80 231 -187 281 -39 18 -64 21 -171 21 -112 0 -130 -3 -170 -24 -103 -53
-151 -126 -158 -239 -8 -122 37 -201 143 -247 27 -12 127 -46 220 -75 244 -75
298 -105 363 -203 26 -38 27 -47 27 -161 0 -107 -3 -126 -23 -164 -77 -144
-222 -212 -420 -199 -137 9 -222 46 -294 125 -53 59 -76 109 -93 208 -20 118
-20 144 4 144 22 0 31 -19 31 -67 0 -52 28 -152 56 -200 32 -56 96 -108 163
-135 84 -32 262 -32 346 1 82 33 158 109 179 181 44 146 -6 275 -130 342 -27
14 -127 49 -223 77 -311 92 -363 132 -391 294 -20 113 17 235 92 303 104 94
264 123 428 77z m-680 -38 c0 -32 -46 -118 -121 -225 -9 -14 -47 -72 -84 -130
-37 -58 -87 -134 -110 -170 -23 -36 -86 -132 -140 -215 -54 -82 -112 -172
-130 -200 -18 -27 -66 -103 -109 -167 -42 -64 -76 -119 -76 -122 0 -4 182 -6
404 -6 l404 0 0 -25 0 -25 -429 0 -429 0 0 31 c0 38 11 57 245 414 29 44 92
142 141 217 49 76 123 191 165 255 42 65 109 168 148 228 l71 110 -356 5
c-344 5 -357 6 -360 24 -2 11 -1 23 2 27 3 5 175 8 384 9 l380 0 0 -35z"/>
</g>
</svg>
